PathFileType	4	(X/Y/Z)	D:\TRACE\v60_Jaco2_6-2-23\ArmBody_Mo2_DMP_1-v60.trc
DataRate	CameraRate	NumFrames	NumMarkers	Units	OrigDataRate	OrigDataStartFrame	OrigNumFrames
100.00	100.00	      21	9	mm	100.00	819	      6551
Frame#	Time	front left toe			Front right toe			aft left toe			aft right toe			Arm			FL body			FR body			AL Body			AR Body			
		X1	Y1	Z1	X2	Y2	Z2	X3	Y3	Z3	X4	Y4	Z4	X5	Y5	Z5	X6	Y6	Z6	X7	Y7	Z7	X8	Y8	Z8	X9	Y9	Z9	

819	8.180	-110.25932	31.15246	-99.32766	-52.05243	613.47205	631.84277	-200.17416	68.97101	468.32288	268.95667	-21.87564	528.70038	57.03292	1209.24939	-70.23297	-11.35818	580.69818	-229.39365	147.42461	586.52631	-224.50912	-26.02716	515.54572	714.24445	128.07631	508.39957	716.85663	
820	8.190	-110.30685	31.27863	-98.83848	197.22083	128.90250	-134.77422	-194.24796	78.16150	475.54727	269.24408	-22.20914	529.29034	58.61568	1208.86389	-66.89724	-10.25667	581.07892	-227.00958	148.43422	586.64777	-222.32108	-24.61023	513.86694	716.63367	129.84346	506.66995	719.07434	
821	8.200	-110.36907	31.51462	-98.36697	201.61487	138.34497	-128.43393	-189.09529	86.42448	482.08905	268.08252	-23.44638	529.21442	60.37432	1208.72131	-63.34549	-9.32468	581.37891	-224.40855	149.21872	586.66541	-220.10942	-22.87998	512.63312	718.34875	131.42752	505.16519	721.16241	
822	8.210	-110.66507	31.65245	-97.99391	-46.12836	610.73328	638.57373	-184.15257	93.47401	488.54474	268.01794	-24.17721	529.63544	62.36687	1208.73535	-60.09119	-8.70345	581.72302	-222.40555	150.56268	586.63837	-218.25179	-21.10825	512.18188	721.04633	133.01122	503.99420	723.29297	
823	8.220	-111.11502	31.91350	-97.69587	209.32315	150.02269	-114.61388	-180.60027	99.17915	495.25595	269.88596	-24.05538	530.30988	64.78788	1208.72351	-57.08310	-8.03133	581.60712	-220.06352	150.91037	586.19183	-215.90613	-19.50900	511.23166	723.25745	135.89766	502.90845	725.16565	
824	8.230	-111.52406	32.01187	-97.38171	212.46657	151.51463	-107.84698	-176.68745	102.52368	502.45142	268.02493	-25.53772	530.21246	67.10004	1208.76050	-54.35894	-7.50717	581.66650	-217.86923	151.05351	586.03766	-213.80031	-18.12652	510.11282	725.26917	135.90770	501.80051	727.07428	
825	8.240	-111.67330	32.00905	-97.18169	-42.56238	609.54053	644.50781	-173.23343	102.11990	510.06900	267.52499	-26.07195	530.25281	68.85297	1208.33569	-51.86182	-7.30237	581.82977	-215.65802	151.26801	585.94739	-211.98621				137.33000	501.03006	728.87524	
826	8.250	-112.07887	32.30761	-96.77797	220.43860	147.72768	-93.39935	-169.39819	99.76783	517.91162	267.39337	-26.47062	530.31860	70.26640	1208.04468	-50.00304	-7.44856	581.91858	-213.93665	151.61424	585.89606	-210.63690	-40.05684	609.20380	646.98926	138.39365	500.63882	730.48022	
827	8.260	-112.77688	32.69414	-96.40823	223.82385	142.31100	-86.62460	-165.20815	94.77023	525.55078	267.17230	-27.07527	530.74933	71.23744	1207.83887	-48.32707	-7.40769	581.78625	-212.37340	151.60945	585.41162	-208.85075	-40.17888	609.58771	648.66022	139.20769	500.23434	732.03827	
828	8.270	-113.18909	32.82430	-96.12380	-13.92509	509.22064	732.27161	-160.85088	88.46167	533.09332	266.68073	-27.57894	530.87830	71.73375	1207.87305	-47.18586	-7.58147	581.86163	-210.60558	151.56888	585.33856	-207.75250	-39.11364	609.37701	649.93347	140.22870	500.28113	733.70618	
829	8.280	-113.46966	32.91481	-95.89289	230.01253	128.27444	-73.86042	-157.35162	80.62366	540.42200	266.11267	-27.91986	530.82361	72.32553	1207.72156	-45.79551	-7.84682	581.95026	-209.01544	151.59129	584.80505	-205.80327	-13.87619	509.89545	734.20459	140.82843	500.03931	735.17572	
830	8.290	-113.91643	32.98689	-95.75855	231.77995	119.05649	-68.22923	-154.70662	72.31680	546.62018	265.80551	-28.15640	530.84058	73.09043	1207.42126	-44.71425	-7.99539	581.81219	-207.59630	151.26097	584.79340	-204.87286	-13.36232	509.79428	735.56293	141.48036	499.95667	736.43445	
831	8.300	-114.52345	32.99837	-95.67768	-12.88498	509.36920	736.77588	-152.52704	62.50447	552.94250	264.99481	-28.57671	530.82965	73.72557	1207.24927	-43.58876	-8.22368	581.81525	-206.34595	150.61417	584.44586	-203.32397				142.31915	499.75970	737.99530	
832	8.310	-115.22387	33.08158	-95.45541	238.09369	98.30225	-57.18715	-149.67032	51.95177	558.99982	264.75714	-28.76173	530.94781	74.37001	1207.21179	-42.42110	-8.78892	581.92542	-205.19263	150.57672	584.43567	-202.64365	-13.02267	509.65979	738.20947	141.52184	499.62296	739.68262	
833	8.320	-115.44138	33.14304	-95.34646	240.17114	86.11874	-52.53061	-146.39658	41.24453	564.90289	264.67929	-28.90018	531.03137	74.98006	1207.26489	-41.01013	-9.46432	582.18555	-204.50687	149.85211	584.23828	-201.48253	-12.96598	509.76117	739.19708	141.76128	499.25308	740.38910	
834	8.330	-116.14081	32.92221	-95.14248	242.37112	74.76627	-48.37135	-142.29079	29.65260	569.87860	264.22818	-29.10336	531.21875	74.93475	1207.32031	-39.79309	-10.02815	582.11694	-203.53822	148.77412	584.23187	-201.06804	-12.31857	509.50970	740.29919	141.28973	499.05389	740.66443	
835	8.340	-116.84053	32.84954	-94.99405	244.76628	63.94369	-45.67543	-139.50107	17.81769	573.00293	263.13803	-29.53731	531.28625	75.01925	1207.15210	-38.87620	-10.54173	581.86194	-202.52086	148.40616	584.26001	-200.47237	-13.18294	509.12637	740.40582	141.07297	498.80173	741.26294	
836	8.350	-117.27695	32.78961	-94.77948	246.24181	53.57214	-44.80658	-138.17020	6.88461	574.12897	262.53778	-29.69804	531.26788	74.77753	1207.11780	-38.06184	-11.41895	581.88641	-202.19505	147.84494	583.95441	-199.55862	-13.80721	508.69980	741.29645	141.29999	498.44412	741.61871	
837	8.360	-117.71355	32.62398	-94.66505	246.81473	44.18486	-44.90091	-138.03604	-3.38443	573.62793	262.12802	-29.83931	531.23273	73.72166	1207.14978	-37.75332	-12.31693	582.13593	-201.53842	146.83702	584.41833	-199.16402	-14.10575	508.04834	741.51190	141.53500	498.05750	742.38129	
838	8.370	-118.51189	32.92092	-94.59041	246.92346	35.75418	-46.03117	-138.81190	-12.77163	571.43060	261.70145	-29.95919	531.27985	72.30275	1207.13232	-37.06832	-12.95976	582.47217	-201.13161	146.46942	584.97778	-198.98494	-14.10397	507.68604	741.88269	140.33772	497.49918	742.52155	
839	8.380	-119.16595	33.08960	-94.63297	246.59067	28.80838	-48.42553	-138.91479	-21.23043	568.39697	262.48401	-29.50403	531.45288	70.27227	1207.43921	-36.28582	-13.78506	582.99463	-200.96288	145.59023	585.41382	-198.84464	-14.88308	507.15857	742.01697	139.82703	497.12491	742.52338	
